<svg xmlns="http://www.w3.org/2000/svg" width="87.157" height="87.233" viewBox="0 0 90789 90868" shape-rendering="geometricPrecision" text-rendering="geometricPrecision" image-rendering="optimizeQuality" fill-rule="evenodd" clip-rule="evenodd"><defs><style><![CDATA[
    .fil0 {fill:white}
   ]]></style></defs><path class="fil0" d="M3765 10211 c-408 -106 -745 -233 -1100 -415 -800 -410 -1453 -998
-1949 -1753 -132 -202 -218 -353 -327 -578 -139 -288 -239 -555 -341 -910
l-43 -150 -3 -1262 -2 -1261 40 -159 c188 -727 547 -1428 1032 -2008 601 -720
1398 -1265 2288 -1565 96 -33 245 -78 330 -102 l155 -43 1275 0 1275 0 155 43
c852 236 1560 629 2195 1219 447 416 829 937 1106 1508 148 307 266 627 349
948 l40 159 -2 1261 -3 1262 -43 150 c-102 355 -202 622 -341 910 -498 1028
-1303 1845 -2321 2354 -310 154 -600 266 -975 373 l-150 43 -1265 2 -1265 2
-110 -28z m1875 -95 c1410 -155 2654 -862 3502 -1991 480 -638 799 -1386 932
-2185 49 -291 61 -450 61 -820 0 -370 -12 -529 -61 -820 -203 -1218 -841
-2311 -1801 -3087 -1065 -862 -2421 -1245 -3795 -1073 -1744 218 -3264 1363
-3967 2988 -164 378 -277 762 -345 1172 -78 468 -87 988 -26 1468 222 1742
1368 3262 2985 3960 542 234 1052 356 1690 406 121 9 687 -3 825 -18z" id="Layer_x0020_1"/><g id="Layer_x0020_1_0"><path id="logo_top.svg" class="fil0" d="M74961 25425L52437 2901c-3898-3868-10271-3868-14139 0L15805 25394c-1269 1268-1269 3403 0 4703l6837 6806 4517 4208c1362 1238 3403 1238 4765 0l9065-8384c2506-2321 6343-2321 8818 0l9096 8384c1330 1238 3403 1238 4734 0l4548-4208 6776-6775c1299-1300 1299-3403 0-4703z"/></g></svg>
