<svg id="Layer_1" enable-background="new 0 0 256 256" height="512" viewBox="0 0 256 256" width="512" xmlns="http://www.w3.org/2000/svg"><g><g><g><path d="m148.973 211.787v-3.221-32.672h-4.434-71.68c-2.439 0-4.434 1.995-4.434 4.434v31.459 4.435h76.113c2.44-.001 4.435-1.996 4.435-4.435zm-40.274-.672c-8.316 0-15.059-6.742-15.059-15.056v-.003c0-.23.024-.456.035-.684.013-.286.015-.574.043-.855.01-.095.031-.186.043-.281.841-6.952 6.407-12.448 13.397-13.158.507-.052 1.021-.078 1.54-.078 8.316 0 15.059 6.742 15.059 15.06.001 8.313-6.741 15.055-15.058 15.055z" fill="#ffffff"/></g></g><g><g><path d="m72.859 175.894c-2.439 0-4.434 1.995-4.434 4.434v31.459 4.435h7.949v-40.327h-3.515z" fill="#f43075"/></g></g><g><g><path d="m68.426 211.787v-31.459c0-2.439 1.994-4.434 4.434-4.434h71.68c2.439 0 4.434-1.784 4.434-3.966v-8.399-17.78c0-2.439-1.994-4.434-4.434-4.434h-21.172c-2.439 0-5.648 1.583-7.131 3.517l-4.961 6.472c-1.482 1.935-4.691 3.518-7.131 3.518h-45.473c-2.44 0-4.434 1.995-4.434 4.435v52.53c0 2.439 1.994 4.435 4.434 4.435h2.66 5.764c.73-.001 1.33-1.996 1.33-4.435z" fill="#f8af23"/></g></g><g><g><path d="m58.672 154.822c-2.44 0-4.434 1.995-4.434 4.435v52.53c0 2.439 1.994 4.435 4.434 4.435h2.66.855v-61.399h-3.515z" fill="#f87023"/></g></g><g><g><path d="m181.26 174.269c10.41 0 18.853-8.441 18.853-18.851 0-10.412-8.443-18.854-18.853-18.854v18.851h-18.852v.003c0 10.41 8.442 18.851 18.852 18.851z" fill="#f8af23"/></g></g><g><g><path d="m181.26 136.565c-2.603 0-5.082.527-7.337 1.481-6.767 2.862-11.515 9.562-11.515 17.369h18.852z" fill="#f46275"/></g></g><g><g><path d="m205.891 126.499h-49.262c-4.211 0-7.656 3.445-7.656 7.655v11.595 17.78 8.399 3.966 32.672c0 4.209 3.445 7.655 7.656 7.655h49.262c4.207 0 7.656-3.446 7.656-7.655v-74.412c0-4.21-3.449-7.655-7.656-7.655zm-43.483 28.917c0-7.807 4.748-14.507 11.515-17.369 2.255-.954 4.734-1.481 7.337-1.481 10.41 0 18.853 8.441 18.853 18.854 0 10.409-8.443 18.851-18.853 18.851s-18.852-8.441-18.852-18.851c0-.003 0-.004 0-.004zm6.721 50.737h-8.967v-12.804h8.967zm16.613 0h-8.965v-18.337h8.965zm16.615 0h-8.967v-25.604h8.967z" fill="#ffffff"/></g></g><g><g><path d="m156.629 126.499c-4.211 0-7.656 3.445-7.656 7.655v11.595 17.78 8.399 3.966 32.672c0 4.209 3.445 7.655 7.656 7.655h.293v-89.723h-.293z" fill="#6377e7"/></g></g><g><g><path d="m205.891 126.499c4.211 0 7.656 3.445 7.656 7.655v11.595 17.78 8.399 3.966 32.672c0 4.209-3.445 7.655-7.656 7.655h-.293v-89.723h.293z" fill="#63e2e7"/></g></g><g><g><path d="m105.869 46.912c0-4.212 3.445-7.655 7.654-7.655h32.135c4.211 0 7.654 3.443 7.654 7.655v5.177h11.668v-16.844c0-4.211-3.443-7.655-7.654-7.655h-55.469c-4.211 0-7.656 3.444-7.656 7.655v16.844h11.668z" fill="#63bce7"/></g></g><g><g><path d="m111.498 27.589h-9.641c-4.211 0-7.656 3.444-7.656 7.655v16.844h9.641v-16.843c0-4.211 3.445-7.656 7.656-7.656z" fill="#6377e7"/></g></g><g><g><path d="m67.096 216.221h1.33v-4.435c0 2.44-.6 4.435-1.33 4.435z" fill="#f46275"/></g></g><g><g><path d="m144.539 175.894h4.434v-3.966c0 2.182-1.995 3.966-4.434 3.966z" fill="#f46275"/></g></g><g><g><path d="m148.973 208.566v3.221c0 2.439-1.994 4.435-4.434 4.435h12.09c-4.211-.001-7.656-3.447-7.656-7.656z" fill="#f46275"/></g></g><g><g><path d="m207.996 52.392c2.622.848 3.453 3.38 1.76 6.35l-20.805 36.515c-2.084 3.658-7.232 6.651-11.443 6.651h-38.092v8.783c0 2.75-2.25 5-5 5h-9.648c-2.75 0-5-2.25-5-5v-8.783h-38.09c-4.213 0-9.363-2.993-11.445-6.651l-20.807-36.515c-1.691-2.97-.863-5.502 1.761-6.35-3.194.921-5.55 3.872-5.55 7.353v148.821c0 4.209 3.445 7.655 7.656 7.655h5.379c-2.44 0-4.434-1.995-4.434-4.435v-52.53c0-2.439 1.994-4.435 4.434-4.435h45.473c2.439 0 5.648-1.583 7.131-3.518l4.961-6.472c1.483-1.934 4.692-3.517 7.131-3.517h21.172c2.439 0 4.434 1.995 4.434 4.434v-11.595c0-4.21 3.445-7.655 7.656-7.655h49.262c4.207 0 7.656 3.445 7.656 7.655v-74.408c-.001-3.481-2.36-6.432-5.552-7.353z" fill="#f46275"/></g></g><g><g><path d="m207.996 52.392c2.622.848 3.453 3.38 1.76 6.35l-4.158 7.298v60.459h.293c4.207 0 7.656 3.445 7.656 7.655v-74.409c0-3.481-2.359-6.432-5.551-7.353z" fill="#f48875"/></g></g><g><g><path d="m49.426 58.742c-1.691-2.97-.863-5.502 1.761-6.35-3.194.921-5.55 3.872-5.55 7.353v148.821c0 4.209 3.445 7.655 7.656 7.655h.293v-150.179z" fill="#f43075"/></g></g><g><g><path d="m49.426 58.742 20.807 36.515c2.082 3.658 7.232 6.651 11.445 6.651h38.09v-8.78c0-2.75 2.25-5 5-5h9.648c2.75 0 5 2.25 5 5v8.78h38.092c4.211 0 9.359-2.993 11.443-6.651l20.805-36.515c1.693-2.97.862-5.502-1.76-6.35-.608-.197-1.314-.304-2.105-.304h-40.91-11.668-31.377-16.066-11.669-40.908c-.793 0-1.498.106-2.106.304-2.625.848-3.453 3.38-1.761 6.35z" fill="#f8af23"/></g></g><g><g><path d="m78.184 95.256-20.807-36.514c-1.691-2.97-.863-5.502 1.761-6.35.608-.197 1.314-.304 2.107-.304h-7.945c-.793 0-1.498.106-2.106.304-2.624.848-3.452 3.38-1.761 6.35l20.807 36.515c2.082 3.658 7.232 6.651 11.445 6.651h7.945c-4.214 0-9.364-2.993-11.446-6.652z" fill="#f87023"/></g></g><g><g><path d="m181.005 95.256 20.807-36.515c1.691-2.97.863-5.502-1.761-6.35-.608-.197-1.314-.304-2.106-.304h7.945c.793 0 1.498.106 2.106.304 2.624.848 3.452 3.38 1.761 6.35l-20.807 36.515c-2.082 3.658-7.232 6.651-11.445 6.651h-7.945c4.212.001 9.363-2.992 11.445-6.651z" fill="#f8d323"/></g></g><g><g><path d="m134.416 88.127h-9.648c-2.75 0-5 2.25-5 5v8.78 8.783c0 2.75 2.25 5 5 5h9.648c2.75 0 5-2.25 5-5v-8.783-8.78c0-2.75-2.25-5-5-5z" fill="#63bce7"/></g></g><g><g><path d="m129.413 110.691v-8.783-8.78c0-2.75 2.25-5 5-5h-9.645c-2.75 0-5 2.25-5 5v8.78 8.783c0 2.75 2.25 5 5 5h9.645c-2.75 0-5-2.25-5-5z" fill="#6377e7"/></g></g><g><g><path d="m193.391 180.548h8.967v25.604h-8.967z" fill="#f46275"/></g></g><g><g><path d="m176.777 187.816h8.965v18.337h-8.965z" fill="#f8af23"/></g></g><g><g><path d="m160.162 193.349h8.967v12.804h-8.967z" fill="#f46275"/></g></g><g><g><path d="m93.676 195.373c.013-.286.015-.574.043-.855-.029.28-.031.568-.043.855z" fill="#63bce7"/></g></g><g><g><path d="m108.699 180.999v15.057h-15.058v.003c0 8.313 6.742 15.056 15.059 15.056 8.316 0 15.059-6.742 15.059-15.056-.001-8.317-6.743-15.06-15.06-15.06z" fill="#63bce7"/></g></g><g><g><path d="m108.699 180.999c-.519 0-1.033.026-1.54.078-6.991.71-12.557 6.207-13.397 13.158-.012.095-.033.186-.043.281-.028.281-.03.569-.043.855-.011.228-.035.453-.035.684h15.059v-15.056z" fill="#f8af23"/></g></g><g><g><g><path d="m181.261 175.769c11.223 0 20.354-9.129 20.354-20.351 0-11.223-9.131-20.354-20.354-20.354h-.001c-2.747 0-5.412.538-7.921 1.6-7.552 3.194-12.431 10.554-12.431 18.75 0 .006.002.011.002.016.007 11.217 9.134 20.339 20.351 20.339zm1.499-20.353v-17.275c8.868.764 15.854 8.215 15.854 17.278 0 9.567-7.785 17.351-17.354 17.351-9.061 0-16.511-6.985-17.276-15.854h17.275c.829 0 1.501-.672 1.501-1.5zm-8.252-15.988c1.678-.71 3.438-1.145 5.252-1.299v15.787h-15.787c.548-6.375 4.56-11.961 10.535-14.488z" fill="#231f20"/></g></g><g><g><path d="m202.357 179.048h-8.967c-.828 0-1.5.671-1.5 1.5v25.604c0 .829.672 1.5 1.5 1.5h8.967c.828 0 1.5-.671 1.5-1.5v-25.604c0-.828-.671-1.5-1.5-1.5zm-1.5 25.605h-5.967v-22.604h5.967z" fill="#231f20"/></g></g><g><g><path d="m185.743 186.316h-8.965c-.828 0-1.5.671-1.5 1.5v18.337c0 .829.672 1.5 1.5 1.5h8.965c.828 0 1.5-.671 1.5-1.5v-18.337c0-.829-.672-1.5-1.5-1.5zm-1.5 18.337h-5.965v-15.337h5.965z" fill="#231f20"/></g></g><g><g><path d="m169.129 191.849h-8.967c-.828 0-1.5.671-1.5 1.5v12.804c0 .829.672 1.5 1.5 1.5h8.967c.828 0 1.5-.671 1.5-1.5v-12.804c0-.828-.672-1.5-1.5-1.5zm-1.5 12.804h-5.967v-9.804h5.967z" fill="#231f20"/></g></g><g><g><path d="m214.436 216.221c0-.829-.672-1.5-1.5-1.5h-.286c1.484-1.628 2.398-3.784 2.398-6.155v-74.412c0-.007-.001-.013-.001-.019v-74.39c0-4.026-2.696-7.62-6.564-8.77-.008-.003-.015-.006-.023-.009-.003-.001-.007-.001-.01-.002-.013-.004-.024-.009-.037-.012l-.001.004c-.76-.24-1.606-.366-2.52-.366h-39.41v-15.345c0-5.048-4.106-9.155-9.154-9.155h-55.469c-5.049 0-9.156 4.107-9.156 9.155v15.344h-39.41c-.916 0-1.763.126-2.521.366l-.001-.003c-.012.003-.024.008-.036.012-.003.001-.007.001-.01.002-.008.003-.015.006-.023.009-3.869 1.149-6.566 4.743-6.566 8.771v148.821c0 2.371.914 4.528 2.398 6.155h-2.459c-.829 0-1.5.671-1.5 1.5s.671 1.5 1.5 1.5h9.217 5.379 97.958 49.262 7.044c.829-.001 1.501-.672 1.501-1.501zm-118.735-180.976c0-3.394 2.762-6.155 6.156-6.155h55.469c3.394 0 6.154 2.761 6.154 6.155v15.344h-8.668v-3.677c0-5.048-4.106-9.155-9.154-9.155h-32.135c-5.048 0-9.154 4.107-9.154 9.155v3.677h-8.668zm56.111 11.667v3.677h-44.443v-3.677c0-3.394 2.761-6.155 6.154-6.155h32.135c3.394-.001 6.154 2.761 6.154 6.155zm-101.633 8.129c.22-.566.714-.977 1.471-1.222.472-.153 1.025-.23 1.644-.23h152.598c.618 0 1.171.078 1.645.231.754.244 1.249.655 1.469 1.223.296.764.101 1.814-.552 2.957l-20.805 36.515c-1.819 3.195-6.463 5.894-10.14 5.894h-36.592v-7.28c0-3.584-2.916-6.5-6.5-6.5h-9.648c-3.584 0-6.5 2.916-6.5 6.5v7.28h-36.59c-3.679 0-8.324-2.699-10.142-5.894l-20.808-36.516c-.651-1.144-.847-2.194-.55-2.958zm87.737 38.086v8.78 8.783c0 1.93-1.57 3.5-3.5 3.5h-9.648c-1.93 0-3.5-1.57-3.5-3.5v-8.783-8.78c0-1.93 1.57-3.5 3.5-3.5h9.648c1.93 0 3.5 1.571 3.5 3.5zm9.557 118.658c0 1.618-1.316 2.935-2.934 2.935h-74.613v-34.394c0-1.618 1.316-2.934 2.934-2.934h74.613zm0-39.866c0 1.336-1.344 2.466-2.934 2.466v.007h-71.68c-3.272 0-5.934 2.662-5.934 5.934v34.387h-8.254c-1.618 0-2.934-1.316-2.934-2.935v-52.53c0-1.618 1.316-2.935 2.934-2.935h45.473c2.902 0 6.558-1.803 8.321-4.105l4.961-6.472c1.196-1.561 3.972-2.93 5.94-2.93h21.172c1.617 0 2.934 1.316 2.934 2.934v26.179zm.001-37.765v6.436c-.867-.496-1.867-.783-2.935-.783h-21.172c-2.902 0-6.558 1.803-8.321 4.105l-4.961 6.472c-1.196 1.561-3.972 2.93-5.94 2.93h-45.473c-3.272 0-5.934 2.662-5.934 5.935v52.53c0 1.071.289 2.075.788 2.943h-.234c-3.395 0-6.156-2.761-6.156-6.155v-148.822c0-.624.107-1.23.288-1.807.174.512.404 1.03.698 1.546l20.806 36.514c2.365 4.155 7.965 7.409 12.749 7.409h36.59v7.283c0 3.584 2.916 6.5 6.5 6.5h9.648c3.584 0 6.5-2.916 6.5-6.5v-7.283h36.592c4.781 0 10.38-3.254 12.747-7.409l20.804-36.514c.295-.517.526-1.036.7-1.549.181.578.288 1.184.288 1.809v67.651c-1.628-1.484-3.784-2.397-6.155-2.397h-49.261c-5.049.001-9.156 4.107-9.156 9.156zm64.574 74.412c0 3.394-2.762 6.155-6.156 6.155h-49.262c-3.395 0-6.156-2.761-6.156-6.155v-74.412c0-3.394 2.762-6.155 6.156-6.155h49.262c3.388 0 6.145 2.751 6.155 6.136v.019h.001z" fill="#ffffff"/></g></g><g><g><path d="m35.768 216.221c0-.829-.671-1.5-1.5-1.5h-8.344c-.829 0-1.5.671-1.5 1.5s.671 1.5 1.5 1.5h8.344c.828 0 1.5-.671 1.5-1.5z" fill="#231f20"/></g></g><g><g><path d="m230.076 214.721h-8.346c-.828 0-1.5.671-1.5 1.5s.672 1.5 1.5 1.5h8.346c.828 0 1.5-.671 1.5-1.5s-.672-1.5-1.5-1.5z" fill="#231f20"/></g></g><g><g><path d="m202.869 226.911h-148.726c-.829 0-1.5.671-1.5 1.5s.671 1.5 1.5 1.5h148.727c.828 0 1.5-.671 1.5-1.5s-.673-1.5-1.501-1.5z" fill="#231f20"/></g></g><g><g><path d="m45.133 226.911h-8.344c-.829 0-1.5.671-1.5 1.5s.671 1.5 1.5 1.5h8.344c.829 0 1.5-.671 1.5-1.5s-.672-1.5-1.5-1.5z" fill="#231f20"/></g></g><g><g><path d="m220.428 226.911h-8.346c-.828 0-1.5.671-1.5 1.5s.672 1.5 1.5 1.5h8.346c.828 0 1.5-.671 1.5-1.5s-.672-1.5-1.5-1.5z" fill="#231f20"/></g></g><g><g><path d="m108.699 212.615c9.13 0 16.559-7.427 16.559-16.556 0-9.131-7.428-16.56-16.559-16.56-.565 0-1.134.029-1.691.086-7.618.773-13.814 6.859-14.744 14.523l-.1 1.405c-.012.18-.023.36-.023.543v.003c0 9.129 7.428 16.556 16.558 16.556zm-13.448-18.199c.749-6.193 5.765-11.153 11.948-11.834v11.975h-11.97zm13.448 3.14c.829 0 1.5-.671 1.5-1.5v-13.469c6.772.75 12.059 6.503 12.059 13.472 0 7.475-6.083 13.556-13.559 13.556-6.97 0-12.723-5.287-13.471-12.059z" fill="#231f20"/></g></g></g></g></svg>