<svg enable-background="new 0 0 58 58" height="512" viewBox="0 0 58 58" width="512" xmlns="http://www.w3.org/2000/svg"><path d="m33 44c0-1.391.21-2.732.587-4h-25.587v-5l-8 9 8 9v-5h25.587c-.377-1.268-.587-2.609-.587-4z" fill="#23a24d"/><path d="m25 14c0 1.391-.21 2.732-.587 4h25.587v5l8-9-8-9v5h-25.587c.377 1.268.587 2.609.587 4z" fill="#dd352e"/><circle cx="44" cy="44" fill="#ebba16" r="14"/><circle cx="14" cy="14" fill="#57abc1" r="14"/><path d="m19 16-5-3-5 3 5 6z" fill="#2d6d77"/><g fill="#dc691d"><path d="m46 45h-6c-.552 0-1-.447-1-1v-6c0-.553.448-1 1-1h6c2.206 0 4 1.794 4 4s-1.794 4-4 4zm-5-2h5c1.103 0 2-.897 2-2s-.897-2-2-2h-5z"/><path d="m46 51h-6c-.552 0-1-.447-1-1v-6c0-.553.448-1 1-1h6c2.206 0 4 1.794 4 4s-1.794 4-4 4zm-5-2h5c1.103 0 2-.897 2-2s-.897-2-2-2h-5z"/><path d="m42 39c-.552 0-1-.447-1-1v-3c0-.553.448-1 1-1s1 .447 1 1v3c0 .553-.448 1-1 1z"/><path d="m46 39c-.552 0-1-.447-1-1v-3c0-.553.448-1 1-1s1 .447 1 1v3c0 .553-.448 1-1 1z"/><path d="m42 54c-.552 0-1-.447-1-1v-3c0-.553.448-1 1-1s1 .447 1 1v3c0 .553-.448 1-1 1z"/><path d="m46 54c-.552 0-1-.447-1-1v-3c0-.553.448-1 1-1s1 .447 1 1v3c0 .553-.448 1-1 1z"/><path d="m40 39h-2c-.552 0-1-.447-1-1s.448-1 1-1h2c.552 0 1 .447 1 1s-.448 1-1 1z"/><path d="m40 51h-2c-.552 0-1-.447-1-1s.448-1 1-1h2c.552 0 1 .447 1 1s-.448 1-1 1z"/></g><path d="m19 16-5-2-5 2 5-10z" fill="#408a9b"/></svg>