<svg id="Ñëîé_1" data-name="Ñëîé 1" xmlns="http://www.w3.org/2000/svg" viewBox="0 0 150 150"><defs><style>.cls-1,.cls-3{fill:#07e812;}.cls-1{stroke:#cb283c;stroke-miterlimit:10;fill-rule:evenodd;}.cls-2{fill:#fff;}</style></defs><title>homePage</title><path class="cls-1" d="M75,15A60,60,0,1,1,15,75,60,60,0,0,1,75,15h0Z"/><path class="cls-2" d="M107,56.05H80.28V71.74a2.61,2.61,0,0,1-2.43,2.59h-5a2.84,2.84,0,0,1-2.55-3.11V56.05H43a3.85,3.85,0,0,0-4,3.55V91.9a3.83,3.83,0,0,0,4,3.55h64a3.82,3.82,0,0,0,4-3.55V59.58A3.81,3.81,0,0,0,107,56.05Z"/><path class="cls-2" d="M74.33,78a5,5,0,0,1-5.06-5V57.29a5,5,0,0,1,5.06-5h1.83a5,5,0,0,1,5.06,5V73a5,5,0,0,1-5.06,5H74.33Z"/><path class="cls-3" d="M76.16,53.78a3.55,3.55,0,0,1,3.56,3.51V73a3.55,3.55,0,0,1-3.56,3.51H74.33A3.55,3.55,0,0,1,70.77,73V57.29a3.55,3.55,0,0,1,3.56-3.51h1.83m0-3H74.33a6.54,6.54,0,0,0-6.56,6.51V73a6.54,6.54,0,0,0,6.56,6.51h1.83A6.54,6.54,0,0,0,82.72,73V57.29a6.54,6.54,0,0,0-6.56-6.51h0Z"/><path class="cls-3" d="M75.32,74.7a2.34,2.34,0,1,1,2.35-2.33A2.35,2.35,0,0,1,75.32,74.7Z"/></svg>