<?xml version="1.0" encoding="UTF-8" standalone="no"?>
<!DOCTYPE svg PUBLIC "-//W3C//DTD SVG 1.1//EN" "http://www.w3.org/Graphics/SVG/1.1/DTD/svg11.dtd">
<svg version="1.1" xmlns="http://www.w3.org/2000/svg" xmlns:xlink="http://www.w3.org/1999/xlink" preserveAspectRatio="xMidYMid meet" viewBox="0 0 640 640" width="640" height="640"><defs><path d="M628.47 319.32C628.47 487.87 491.63 624.7 323.09 624.7C154.55 624.7 17.71 487.87 17.71 319.32C17.71 150.78 154.55 13.95 323.09 13.95C491.63 13.95 628.47 150.78 628.47 319.32Z" id="c1ymFAqiGr"></path><path d="M482.77 87.82C493.3 85.21 503.96 91.61 506.59 102.14C510.71 118.58 518.29 148.85 522.41 165.29C525.04 175.8 518.64 186.45 508.12 189.06C423.41 210.09 188.35 268.44 103.64 289.46C93.11 292.08 82.45 285.67 79.82 275.15C75.7 258.71 68.12 228.44 64 212C61.37 201.49 67.77 190.84 78.29 188.22C163 167.2 398.06 108.85 482.77 87.82Z" id="c3tEOeNvYl"></path><path d="M514.72 218.42C525.25 215.8 535.91 222.21 538.54 232.73C542.66 249.17 550.24 279.44 554.36 295.88C556.99 306.39 550.59 317.05 540.07 319.66C455.36 340.68 220.3 399.03 135.59 420.06C125.06 422.67 114.4 416.27 111.77 405.74C107.65 389.3 100.07 359.03 95.95 342.6C93.32 332.08 99.72 321.43 110.24 318.82C194.94 297.79 430.01 239.44 514.72 218.42Z" id="a3R2qXgCN"></path><path d="M543.86 348.38C554.39 345.77 565.05 352.17 567.69 362.7C571.81 379.14 579.39 409.41 583.5 425.85C586.14 436.36 579.74 447.01 569.22 449.62C484.51 470.65 249.45 529 164.74 550.02C154.21 552.64 143.55 546.23 140.91 535.71C136.8 519.27 129.21 489 125.1 472.56C122.47 462.05 128.87 451.39 139.38 448.78C224.09 427.76 459.16 369.41 543.86 348.38Z" id="c3kQgwbiO"></path></defs><g><g><g><use xlink:href="#c1ymFAqiGr" opacity="1" fill="#ffffff" fill-opacity="1"></use><g><use xlink:href="#c1ymFAqiGr" opacity="1" fill-opacity="0" stroke="#2276c5" stroke-width="9" stroke-opacity="1"></use></g></g><g><use xlink:href="#c3tEOeNvYl" opacity="1" fill="#2d6eda" fill-opacity="1"></use></g><g><use xlink:href="#a3R2qXgCN" opacity="1" fill="#2d6eda" fill-opacity="1"></use></g><g><use xlink:href="#c3kQgwbiO" opacity="1" fill="#2d6eda" fill-opacity="1"></use></g></g></g></svg>